<svg height='100px' width='100px'  fill="#000000" xmlns="http://www.w3.org/2000/svg" xmlns:xlink="http://www.w3.org/1999/xlink" version="1.1" x="0px" y="0px" viewBox="0 0 24 24" enable-background="new 0 0 24 24" xml:space="preserve"><circle cx="3.543" cy="10.434" r="0.96"></circle><path d="M24,19.404h-5.315v-1.021h4.293V10.66c0-1.408-1.145-2.553-2.553-2.553H3.574c-1.408,0-2.553,1.145-2.553,2.553v7.723h4.293  v1.021H0V10.66c0-1.971,1.603-3.574,3.574-3.574h16.851C22.397,7.085,24,8.689,24,10.66V19.404z"></path><path d="M17.664,24H6.336c-0.845,0-1.532-0.687-1.532-1.532v-7.851h14.392v7.851C19.196,23.313,18.509,24,17.664,24z M5.825,15.638  v6.83c0,0.282,0.229,0.511,0.511,0.511h11.328c0.282,0,0.511-0.229,0.511-0.511v-6.83H5.825z"></path><path d="M19.196,8.106H4.804V1.532C4.804,0.687,5.491,0,6.336,0h11.328c0.845,0,1.532,0.687,1.532,1.532V8.106z M5.825,7.085h12.349  V1.532c0-0.282-0.229-0.511-0.511-0.511H6.336c-0.282,0-0.511,0.229-0.511,0.511V7.085z"></path><path d="M20.234,15.638H3.766c-0.282,0-0.511-0.229-0.511-0.511c0-0.282,0.229-0.511,0.511-0.511h16.468  c0.282,0,0.511,0.229,0.511,0.511C20.745,15.41,20.516,15.638,20.234,15.638z"></path><circle cx="6.543" cy="10.434" r="0.96"></circle></svg>